<?xml version="1.0" encoding="utf-8"?>
<!-- Generator: Adobe Illustrator 23.0.2, SVG Export Plug-In . SVG Version: 6.00 Build 0)  -->
<svg version="1.1" id="Layer_1" xmlns="http://www.w3.org/2000/svg" xmlns:xlink="http://www.w3.org/1999/xlink" x="0px" y="0px"
	 viewBox="0 0 2500 2500" style="enable-background:new 0 0 2500 2500;" xml:space="preserve">
<style type="text/css">
	.st0{fill:#010101;}
</style>
<path class="st0" d="M0.2,537.9h584.4v171.9H0.2V537.9z M0.2,218.7h584.4v171.9H0.2V218.7z M1048.7,854.7H0.2v171.9h1009.2
	c110.5,0,368.3,2.5,464.1,157.1v-95.8C1426.8,935.7,1289.3,854.7,1048.7,854.7L1048.7,854.7z M1051.1,1173.9H0.2v171.9h1009.2
	c245.5,0,400.2,9.8,464.1,44.2v-76.1C1424.3,1193.5,1218.1,1173.9,1051.1,1173.9L1051.1,1173.9z M1048.7,1984.2H0.2v-171.9h1009.2
	c110.5,0,368.3-2.5,464.1-157.1v95.8C1426.8,1903.1,1289.3,1984.2,1048.7,1984.2L1048.7,1984.2z M1051.1,1665H0.2v-171.9h1009.2
	c245.5,0,400.2-9.8,464.1-44.2v76.1C1424.3,1645.3,1218.1,1665,1051.1,1665L1051.1,1665z M1728.8,2281.3h771v-105.6h-748.9
	c-66.3,0-223.4-2.5-279.9-93.3v58.9C1498,2232.2,1581.5,2281.3,1728.8,2281.3z M1726.4,2087.3h771v-105.6h-746.5
	c-149.8,0-243.1-4.9-279.9-27v46.7C1500.4,2075,1625.7,2087.3,1726.4,2087.3L1726.4,2087.3z"/>
</svg>
