<?xml version="1.0" encoding="utf-8"?>
<!-- Generator: Adobe Illustrator 23.0.2, SVG Export Plug-In . SVG Version: 6.00 Build 0)  -->
<svg version="1.1" id="Layer_1" xmlns="http://www.w3.org/2000/svg" xmlns:xlink="http://www.w3.org/1999/xlink" x="0px" y="0px"
	 viewBox="0 0 150.9 151" style="enable-background:new 0 0 150.9 151;" xml:space="preserve">
<style type="text/css">
	.st0{fill:url(#SVGID_1_);}
	.st1{filter:url(#Adobe_OpacityMaskFilter);}
	.st2{fill-rule:evenodd;clip-rule:evenodd;fill:#FFFFFF;}
	.st3{mask:url(#mask-3_1_);}
	.st4{fill:#FFA000;}
	.st5{fill:#F57C00;}
	.st6{fill:#FFCA28;}
	.st7{opacity:0.2;}
	.st8{fill:#FFFFFF;}
	.st9{opacity:0.2;fill:#A52714;enable-background:new    ;}
	.st10{filter:url(#Adobe_OpacityMaskFilter_1_);}
	.st11{mask:url(#mask-3_2_);fill:none;}
	.st12{filter:url(#Adobe_OpacityMaskFilter_2_);}
	.st13{mask:url(#mask-3_3_);fill:url(#SVGID_2_);}
</style>
<title>logo_lockup_firebase_vertical</title>
<desc>Created with Sketch.</desc>
<g id="Page-1">
	<g id="styleguide" transform="translate(-664.000000, -1272.000000)">
		<g id="Group-16" transform="translate(40.000000, 1187.000000)">
			<g id="Group-9" transform="translate(114.000000, 0.000000)">
				<g id="Group-26" transform="translate(405.000000, 1.000000)">
					<g id="logo_lockup_firebase_vertical" transform="translate(105.193370, 83.977901)">
						<g id="_Group_">
							<g id="_Path_5">
								
									<linearGradient id="SVGID_1_" gradientUnits="userSpaceOnUse" x1="-223.1734" y1="219.3986" x2="-222.1303" y2="218.64" gradientTransform="matrix(109.5018 0 0 -150.0389 24434.5703 32943.9922)">
									<stop  offset="0" style="stop-color:#FFFFFF;stop-opacity:0.1"/>
									<stop  offset="1" style="stop-color:#FFFFFF;stop-opacity:0"/>
								</linearGradient>
								<path class="st0" d="M95.8,33.6c-0.2-1.3-1.1-2.3-2.3-2.7c-1.2-0.4-2.6-0.1-3.5,0.8L72.3,49.6l-14-26.5
									c-0.6-1.1-1.7-1.9-3-1.9s-2.4,0.7-3,1.9l-7.6,14.5L25.4,1.9C23.9-1,19.5-0.2,19,3L0.5,121.2L50,148.9c3.1,1.7,6.9,1.7,10,0
									l50-27.7L95.8,33.6z"/>
							</g>
							<defs>
								<filter id="Adobe_OpacityMaskFilter" filterUnits="userSpaceOnUse" x="14.2" y="0.7" width="122.1" height="154.3">
									<feColorMatrix  type="matrix" values="1 0 0 0 0  0 1 0 0 0  0 0 1 0 0  0 0 0 1 0"/>
								</filter>
							</defs>
							<mask maskUnits="userSpaceOnUse" x="14.2" y="0.7" width="122.1" height="154.3" id="mask-3_1_">
								<g class="st1">
									<path id="path-2_1_" class="st2" d="M115.9,34.2c-0.2-1.3-1.1-2.3-2.3-2.7c-1.2-0.4-2.6-0.1-3.5,0.8L92.4,50.1l-14-26.5
										c-0.6-1.1-1.7-1.9-3-1.9s-2.4,0.7-3,1.9l-7.6,14.5L45.5,2.5c-1.5-2.9-5.9-2.1-6.4,1.1L20.6,121.7l49.5,27.7
										c3.1,1.7,6.9,1.7,10,0l50-27.7L115.9,34.2z"/>
								</g>
							</mask>
							<g id="_Group_2" class="st3">
								<g transform="translate(-6.346125, -0.160154)">
									<g id="_Group_3">
										<path id="_Path_" class="st4" d="M26.9,121.9L45.5,3.7c0.5-3.2,4.9-4,6.4-1.1l19.2,35.6l7.6-14.5c0.6-1.1,1.8-1.8,3-1.8
											c1.3,0,2.4,0.7,3,1.8l51.7,98.1H26.9z"/>
										<g id="_Group_4" transform="translate(0.000000, 30.119310)">
											<g style="opacity:0.12;enable-background:new    ;">
												
													<image style="overflow:visible;" width="87" height="112" id="Bitmap" xlink:href="EC163154.png"  transform="matrix(0.8448 0 0 0.8448 20.5434 0.5669)">
												</image>
											</g>
											<polygon id="Shape" class="st5" points="90.9,45.7 71,8.2 26.9,91.8 											"/>
										</g>
									</g>
									<g id="_Group_5" transform="translate(3.421930, 23.299844)">
										<g style="opacity:0.2;enable-background:new    ;">
											
												<image style="overflow:visible;" width="140" height="155" id="_Image_" xlink:href="EC163155.png"  transform="matrix(0.8469 0 0 0.8469 20.6781 0.5669)">
											</image>
										</g>
										<g id="_Group_6" transform="translate(3.421930, 7.387755)">
											<path id="_Path_2" class="st6" d="M129.6,91.2L115.4,3.7c-0.2-1.3-1.1-2.3-2.3-2.7s-2.6-0.1-3.5,0.8L20.1,91.2l49.5,27.7
												c3.1,1.7,6.9,1.7,10,0L129.6,91.2z"/>
										</g>
									</g>
									<g id="_Compound_Path_" class="st7">
										<path class="st8" d="M122.2,34.4c-0.2-1.3-1.1-2.3-2.3-2.7s-2.6-0.1-3.5,0.8L98.7,50.3l-14-26.5c-0.6-1.1-1.7-1.9-3-1.9
											s-2.4,0.7-3,1.9l-7.6,14.5L51.8,2.6c-1.5-2.9-5.9-2.1-6.4,1.1L26.9,121.9h-0.1l0.1,0.1l0.5,0.3l71.2-71.1l17.8-17.7
											c0.9-0.9,2.3-1.2,3.5-0.8c1.2,0.4,2.1,1.4,2.3,2.7l14,86.7l0.2-0.1L122.2,34.4z M27.1,121.7L45.5,4.6
											c0.5-3.2,4.9-4,6.4-1.1l19.2,35.6l7.6-14.5c0.6-1.1,1.8-1.8,3-1.8c1.3,0,2.4,0.7,3,1.8l13.7,25.9L27.1,121.7z"/>
									</g>
									<path id="_Path_3" class="st9" d="M86.5,148.7c-3.1,1.7-6.9,1.7-10,0L27,121.1l-0.1,0.8l49.5,27.7c3.1,1.7,6.9,1.7,10,0
										l50-27.7l-0.1-0.8L86.5,148.7z"/>
								</g>
							</g>
							<defs>
								<filter id="Adobe_OpacityMaskFilter_1_" filterUnits="userSpaceOnUse" x="-26.9" y="-6.7" width="164.3" height="163.7">
									<feColorMatrix  type="matrix" values="1 0 0 0 0  0 1 0 0 0  0 0 1 0 0  0 0 0 1 0"/>
								</filter>
							</defs>
							<mask maskUnits="userSpaceOnUse" x="-26.9" y="-6.7" width="164.3" height="163.7" id="mask-3_2_">
								<g class="st10">
									<path id="path-2_2_" class="st2" d="M95.8,33.6c-0.2-1.3-1.1-2.3-2.3-2.7c-1.2-0.4-2.6-0.1-3.5,0.8L72.3,49.6l-14-26.5
										c-0.6-1.1-1.7-1.9-3-1.9s-2.4,0.7-3,1.9l-7.6,14.5L25.4,1.9C23.9-1,19.5-0.2,19,3L0.5,121.2L50,148.9c3.1,1.7,6.9,1.7,10,0
										l50-27.7L95.8,33.6z"/>
								</g>
							</mask>
							<polygon id="_Path_4" class="st11" points="-26.9,-6.7 137.4,-6.7 137.4,157 -26.9,157 							"/>
							<defs>
								<filter id="Adobe_OpacityMaskFilter_2_" filterUnits="userSpaceOnUse" x="0.5" y="0.1" width="109.5" height="150">
									<feColorMatrix  type="matrix" values="1 0 0 0 0  0 1 0 0 0  0 0 1 0 0  0 0 0 1 0"/>
								</filter>
							</defs>
							<mask maskUnits="userSpaceOnUse" x="0.5" y="0.1" width="109.5" height="150" id="mask-3_3_">
								<g class="st12">
									<path id="path-2_3_" class="st2" d="M95.8,33.6c-0.2-1.3-1.1-2.3-2.3-2.7c-1.2-0.4-2.6-0.1-3.5,0.8L72.3,49.6l-14-26.5
										c-0.6-1.1-1.7-1.9-3-1.9s-2.4,0.7-3,1.9l-7.6,14.5L25.4,1.9C23.9-1,19.5-0.2,19,3L0.5,121.2L50,148.9c3.1,1.7,6.9,1.7,10,0
										l50-27.7L95.8,33.6z"/>
								</g>
							</mask>
							
								<linearGradient id="SVGID_2_" gradientUnits="userSpaceOnUse" x1="-223.1734" y1="219.3986" x2="-222.1303" y2="218.64" gradientTransform="matrix(109.5018 0 0 -150.0389 24434.5703 32943.9922)">
								<stop  offset="0" style="stop-color:#FFFFFF;stop-opacity:0.1"/>
								<stop  offset="1" style="stop-color:#FFFFFF;stop-opacity:0"/>
							</linearGradient>
							<path class="st13" d="M95.8,33.6c-0.2-1.3-1.1-2.3-2.3-2.7c-1.2-0.4-2.6-0.1-3.5,0.8L72.3,49.6l-14-26.5
								c-0.6-1.1-1.7-1.9-3-1.9s-2.4,0.7-3,1.9l-7.6,14.5L25.4,1.9C23.9-1,19.5-0.2,19,3L0.5,121.2L50,148.9c3.1,1.7,6.9,1.7,10,0
								l50-27.7L95.8,33.6z"/>
						</g>
					</g>
				</g>
			</g>
		</g>
	</g>
</g>
</svg>
